<svg xmlns="http://www.w3.org/2000/svg" xmlns:xlink="http://www.w3.org/1999/xlink" version="1.1" id="Layer_1" x="0px" y="0px" width="555.47px" height="555.469px" viewBox="0 0 555.47 555.469" enable-background="new 0 0 555.47 555.469" xml:space="preserve">
<circle fill="#2AACE3" cx="277.7" cy="277.7" r="277.7"/>
<text transform="matrix(1 0 0 1 -535.2021 253.0273)" fill="#FFFFFF" font-family="'ConduitITCStd-Medium'" font-size="125" letter-spacing="3">MATT</text>
<text transform="matrix(1 0 0 1 -598.7012 354.6836)" fill="#FFFFFF" font-family="'ConduitITCStd-Medium'" font-size="125" letter-spacing="3">FULLER</text>
<text transform="matrix(1 0 0 1 -539.127 392.4023)" fill="#FFFFFF" font-family="'SFOldRepublic-Bold'" font-size="22" letter-spacing="3">@ColdFusionCocoa</text>
<g>
	<g>
		<path fill="#FFFFFF" d="M163.549 241.062c-0.875 0-1.25-0.375-1.25-1.25v-76.25c0-0.875 0.375-1.25 1.25-1.25h8 c0.5 0 0.9 0.2 1.1 0.75l18.875 44.625c0.5 1.1 1.2 3.6 1.5 5h0.375c0.25-1.375 1-3.5 1.625-5l18.875-44.625 c0.25-0.5 0.625-0.75 1.125-0.75h8c0.875 0 1.2 0.4 1.2 1.25v76.25c0 0.875-0.375 1.25-1.25 1.25h-8.75 c-0.875 0-1.25-0.375-1.25-1.25v-21.75c0-9.875 0.875-26 1.125-29l-0.5-0.125c-0.5 1.875-1.75 5.875-3 8.75l-14.125 31.4 c-0.25 0.5-0.625 0.75-1.125 0.75h-4.25c-0.5 0-0.875-0.25-1.125-0.75l-14.125-31.375c-1.25-2.75-2.5-6.875-3-8.75l-0.5 0.1 c0.25 3 1.1 19.1 1.1 29v21.75c0 0.875-0.375 1.25-1.25 1.25H163.549z"/>
		<path fill="#FFFFFF" d="M238.299 241.062c-0.875 0-1.375-0.375-1.375-1c0-0.5 0.625-2.375 1.25-4.25l22.125-72.625 c0.125-0.625 0.625-0.875 1.25-0.875h6.75c0.625 0 1.1 0.2 1.2 0.875l22.25 73c0.5 1.5 1.1 3.4 1.1 3.9 c0 0.625-0.5 1-1.375 1h-9.375c-0.625 0-1.125-0.25-1.25-0.875l-4.625-16.5c-0.125-0.625-0.625-0.75-1.25-0.75h-20.25 c-0.625 0-1.125 0.125-1.25 0.75l-4.625 16.5c-0.125 0.625-0.625 0.875-1.25 0.875H238.299z M271.424 212.9 c0.875 0 1.375-0.5 1.375-1.125c0-0.5-0.375-1.5-0.75-2.875l-5.375-21.125c-0.25-1-1.25-4.5-1.5-5.5h-0.5 c-0.25 1-1.25 4.75-1.5 5.625l-5.375 20.5c-0.375 1.5-0.875 2.75-0.875 3.375s0.5 1.1 1.4 1.125H271.424z"/>
		<path fill="#FFFFFF" d="M310.674 241.062c-0.875 0-1.25-0.375-1.25-1.25v-66.25c0-0.875-0.375-1.25-1.25-1.25h-14.375 c-0.875 0-1.25-0.375-1.25-1.25v-7.5c0-0.875 0.375-1.25 1.25-1.25h42.5c0.875 0 1.2 0.4 1.2 1.25v7.5 c0 0.875-0.375 1.25-1.25 1.25h-14.375c-0.875 0-1.25 0.375-1.25 1.25v66.25c0 0.875-0.375 1.25-1.25 1.25H310.674z"/>
		<path fill="#FFFFFF" d="M366.297 241.062c-0.875 0-1.25-0.375-1.25-1.25v-66.25c0-0.875-0.375-1.25-1.25-1.25h-14.375 c-0.875 0-1.25-0.375-1.25-1.25v-7.5c0-0.875 0.375-1.25 1.25-1.25h42.5c0.875 0 1.2 0.4 1.2 1.25v7.5 c0 0.875-0.375 1.25-1.25 1.25h-14.375c-0.875 0-1.25 0.375-1.25 1.25v66.25c0 0.875-0.375 1.25-1.25 1.25H366.297z"/>
	</g>
	<g>
		<path fill="#FFFFFF" d="M101.237 342.719c-0.875 0-1.25-0.375-1.25-1.25v-76.25c0-0.875 0.375-1.25 1.25-1.25h42.5 c0.875 0 1.2 0.4 1.2 1.25v7.5c0 0.875-0.375 1.25-1.25 1.25h-31.25c-0.875 0-1.25 0.375-1.25 1.25v21.25 c0 0.9 0.4 1.2 1.2 1.25h25.625c0.875 0 1.2 0.4 1.2 1.25v7.5c0 0.875-0.375 1.25-1.25 1.25h-25.625 c-0.875 0-1.25 0.375-1.25 1.25v32.5c0 0.875-0.375 1.25-1.25 1.25H101.237z"/>
		<path fill="#FFFFFF" d="M180.61 343.969c-13.75 0-22.5-8.75-22.5-21.25v-57.5c0-0.875 0.375-1.25 1.25-1.25h8.75 c0.875 0 1.2 0.4 1.2 1.25v57.5c0 6.1 5.1 11.2 11.2 11.25h3.75c6.125 0 11.25-5.125 11.25-11.25v-57.5 c0-0.875 0.375-1.25 1.25-1.25h8.75c0.875 0 1.2 0.4 1.2 1.25v57.5c0 12.5-8.75 21.25-22.5 21.25H180.61z"/>
		<path fill="#FFFFFF" d="M228.109 342.719c-0.875 0-1.25-0.375-1.25-1.25v-76.25c0-0.875 0.375-1.25 1.25-1.25h8.75 c0.875 0 1.2 0.4 1.2 1.25v66.25c0 0.9 0.4 1.2 1.2 1.25h31.25c0.875 0 1.2 0.4 1.2 1.25v7.5 c0 0.875-0.375 1.25-1.25 1.25H228.109z"/>
		<path fill="#FFFFFF" d="M286.109 342.719c-0.875 0-1.25-0.375-1.25-1.25v-76.25c0-0.875 0.375-1.25 1.25-1.25h8.75 c0.875 0 1.2 0.4 1.2 1.25v66.25c0 0.9 0.4 1.2 1.2 1.25h31.25c0.875 0 1.2 0.4 1.2 1.25v7.5 c0 0.875-0.375 1.25-1.25 1.25H286.109z"/>
		<path fill="#FFFFFF" d="M344.108 342.719c-0.875 0-1.25-0.375-1.25-1.25v-76.25c0-0.875 0.375-1.25 1.25-1.25h42.5 c0.875 0 1.2 0.4 1.2 1.25v7.5c0 0.875-0.375 1.25-1.25 1.25h-31.25c-0.875 0-1.25 0.375-1.25 1.25v21.25 c0 0.9 0.4 1.2 1.2 1.25h25.625c0.875 0 1.2 0.4 1.2 1.25v7.5c0 0.875-0.375 1.25-1.25 1.25h-25.625 c-0.875 0-1.25 0.375-1.25 1.25v22.5c0 0.9 0.4 1.2 1.2 1.25h31.25c0.875 0 1.2 0.4 1.2 1.25v7.5 c0 0.875-0.375 1.25-1.25 1.25H344.108z"/>
		<path fill="#FFFFFF" d="M407.233 342.719c-0.875 0-1.25-0.375-1.25-1.25v-76.25c0-0.875 0.375-1.25 1.25-1.25h25 c13.75 0 22.5 8.8 22.5 22.5v1.25c0 6.75-6 14.625-10.875 16.875c-0.5 0.25-0.75 0.5-0.75 1c0 0.4 0.5 1.6 1 3l10.375 30 c0.5 1.5 1 2.6 1 3.125c0 0.625-0.375 1-1.25 1h-9.625c-0.5 0-1-0.375-1.125-0.875l-11.625-33.375c-0.125-0.5-0.5-0.75-1-0.75 h-12.375c-0.875 0-1.25 0.375-1.25 1.25v32.5c0 0.875-0.375 1.25-1.25 1.25H407.233z M432.233 297.7 c6.125 0 11.25-5.125 11.25-11.25v-1.25c0-6.125-5.125-11.25-11.25-11.25h-13.75c-0.875 0-1.25 0.375-1.25 1.25v21.25 c0 0.9 0.4 1.2 1.2 1.25H432.233z"/>
	</g>
	<g>
		<path fill="#FFFFFF" d="M121.016 365.047c-0.928-1.41-2.109-2.535-3.544-3.377c-1.436-0.854-2.976-1.28-4.62-1.28 c-2.598 0-4.831 0.935-6.698 2.802c-1.868 1.868-2.802 4.101-2.802 6.698s0.934 4.8 2.8 6.7 c1.867 1.9 4.1 2.8 6.7 2.802c3.364 0 6.079-1.54 8.146-4.62l3.191 2.097c-1.274 1.93-2.901 3.458-4.88 4.6 c-2.029 1.138-4.182 1.707-6.457 1.707c-3.637 0-6.761-1.299-9.37-3.896c-2.623-2.622-3.934-5.745-3.934-9.37 c0-3.611 1.311-6.729 3.934-9.352c2.622-2.622 5.745-3.934 9.37-3.934c2.264 0 4.4 0.6 6.5 1.7 c1.967 1.1 3.6 2.7 4.9 4.657L121.016 365.047z"/>
		<path fill="#FFFFFF" d="M149.939 373.062c0 2.771-0.996 5.152-2.987 7.144c-1.992 1.967-4.379 2.95-7.162 3 c-2.796 0-5.184-0.983-7.162-2.95c-1.979-1.979-2.969-4.36-2.969-7.144s0.989-5.164 2.969-7.144 c1.991-1.991 4.379-2.987 7.162-2.987s5.17 1 7.2 2.987C148.943 367.9 149.9 370.3 149.9 373.062z M146.136 373.1 c0-1.719-0.625-3.203-1.874-4.453c-1.25-1.249-2.74-1.874-4.472-1.874c-1.732 0-3.223 0.625-4.472 1.9 c-1.237 1.237-1.855 2.722-1.855 4.453c0 1.7 0.6 3.2 1.9 4.472c1.236 1.2 2.7 1.9 4.5 1.9 s3.234-0.618 4.472-1.855C145.511 376.3 146.1 374.8 146.1 373.062z"/>
		<path fill="#FFFFFF" d="M157.099 382.841V356.92h3.785v25.921H157.099z"/>
		<path fill="#FFFFFF" d="M184.52 382.841v-2.338c-1.881 1.77-4.101 2.653-6.661 2.653c-2.722 0-5.041-0.995-6.958-2.987 c-1.905-1.979-2.857-4.348-2.857-7.106c0-2.758 0.952-5.133 2.857-7.125c1.904-2.004 4.224-3.006 6.958-3.006 c2.572 0 4.8 0.9 6.7 2.69v-8.702h3.804v25.921H184.52z M184.52 373.062c0-1.719-0.625-3.203-1.874-4.453 c-1.25-1.249-2.74-1.874-4.472-1.874c-1.732 0-3.223 0.625-4.472 1.874c-1.237 1.237-1.855 2.722-1.855 4.5 c0 1.7 0.6 3.2 1.9 4.472c1.236 1.2 2.7 1.9 4.5 1.855s3.234-0.618 4.472-1.855 C183.895 376.3 184.5 374.8 184.5 373.062z"/>
		<path fill="#FFFFFF" d="M200.845 360.705v6.977h9.5v3.804h-9.5v11.355h-3.785V356.92h16.458v3.785H200.845z"/>
		<path fill="#FFFFFF" d="M233.962 382.841v-1.8c-1.547 1.41-3.34 2.115-5.381 2.115c-2.252 0-4.15-0.865-5.696-2.598 c-1.473-1.657-2.208-3.63-2.208-5.919v-11.393h3.785v11.393c0 1.3 0.5 2.4 1.4 3.34c0.939 0.9 2.1 1.4 3.3 1.4 c1.299 0 2.412-0.47 3.34-1.41c0.939-0.939 1.41-2.053 1.41-3.34v-11.393h3.804v19.594H233.962z"/>
		<path fill="#FFFFFF" d="M258.229 377.367c0 1.608-0.582 2.976-1.744 4.101c-1.163 1.125-2.542 1.688-4.138 1.7 c-1.41 0-2.647-0.439-3.711-1.317c-1.064-0.891-1.751-2.041-2.06-3.451l3.674-0.983c0.247 1.3 0.9 2 2.1 2 c0.544 0 1.032-0.197 1.466-0.594c0.433-0.408 0.649-0.884 0.649-1.429c0-0.902-0.687-1.651-2.06-2.245 c-1.102-0.494-1.971-0.896-2.607-1.206c-0.637-0.309-1.042-0.531-1.215-0.668c-1.373-1.014-2.06-2.492-2.06-4.435 c0-1.583 0.575-2.962 1.726-4.138c1.162-1.162 2.548-1.744 4.156-1.744c1.41 0 2.6 0.5 3.7 1.4 c1.014 0.9 1.7 2 2 3.433l-3.711 0.965c-0.285-1.299-0.959-1.948-2.022-1.948c-0.569 0-1.064 0.204-1.484 0.6 c-0.408 0.408-0.612 0.897-0.612 1.466c0 0.9 0.7 1.6 2.1 2.245c1.088 0.5 1.9 0.9 2.6 1.2 c0.625 0.3 1 0.5 1.2 0.696C257.542 374 258.2 375.4 258.2 377.367z"/>
		<path fill="#FFFFFF" d="M266.982 360.705v-3.785h3.785v3.785H266.982z M266.982 382.841v-19.594h3.785v19.594H266.982z"/>
		<path fill="#FFFFFF" d="M298.207 373.062c0 2.771-0.996 5.152-2.987 7.144c-1.991 1.967-4.379 2.95-7.162 3 c-2.796 0-5.183-0.983-7.162-2.95c-1.979-1.979-2.969-4.36-2.969-7.144s0.989-5.164 2.969-7.144 c1.991-1.991 4.379-2.987 7.162-2.987s5.171 1 7.2 2.987C297.211 367.9 298.2 370.3 298.2 373.062z M294.403 373.062c0-1.719-0.625-3.203-1.874-4.453c-1.25-1.249-2.74-1.874-4.472-1.874s-3.223 0.625-4.472 1.9 c-1.237 1.237-1.855 2.722-1.855 4.453c0 1.7 0.6 3.2 1.9 4.472c1.236 1.2 2.7 1.9 4.5 1.9 s3.234-0.618 4.472-1.855C293.778 376.3 294.4 374.8 294.4 373.062z"/>
		<path fill="#FFFFFF" d="M318.651 382.841v-11.355c0-1.286-0.47-2.399-1.41-3.34c-0.928-0.939-2.041-1.41-3.34-1.41 c-1.286 0-2.399 0.471-3.34 1.41c-0.94 0.94-1.41 2.054-1.41 3.34v11.355h-3.785v-19.594h3.785v1.837 c1.546-1.435 3.346-2.152 5.399-2.152c2.264 0 4.2 0.9 5.7 2.635c1.472 1.7 2.2 3.6 2.2 5.919v11.355H318.651z"/>
		<path fill="#FFFFFF" d="M351.082 365.047c-0.928-1.41-2.109-2.535-3.544-3.377c-1.435-0.854-2.976-1.28-4.62-1.28 c-2.598 0-4.83 0.935-6.698 2.802c-1.868 1.868-2.802 4.101-2.802 6.698s0.934 4.8 2.8 6.7 c1.868 1.9 4.1 2.8 6.7 2.802c3.364 0 6.08-1.54 8.146-4.62l3.191 2.097c-1.274 1.93-2.901 3.458-4.88 4.6 c-2.029 1.138-4.182 1.707-6.457 1.707c-3.637 0-6.76-1.299-9.37-3.896c-2.622-2.622-3.934-5.745-3.934-9.37 c0-3.611 1.312-6.729 3.934-9.352c2.622-2.622 5.745-3.934 9.37-3.934c2.264 0 4.4 0.6 6.5 1.7 c1.967 1.1 3.6 2.7 4.9 4.657L351.082 365.047z"/>
		<path fill="#FFFFFF" d="M380.006 373.062c0 2.771-0.996 5.152-2.987 7.144c-1.991 1.967-4.379 2.95-7.162 3 c-2.796 0-5.183-0.983-7.162-2.95c-1.979-1.979-2.969-4.36-2.969-7.144s0.989-5.164 2.969-7.144 c1.991-1.991 4.379-2.987 7.162-2.987s5.171 1 7.2 2.987C379.01 367.9 380 370.3 380 373.062z M376.202 373.1 c0-1.719-0.625-3.203-1.874-4.453c-1.25-1.249-2.74-1.874-4.472-1.874s-3.223 0.625-4.472 1.9 c-1.237 1.237-1.855 2.722-1.855 4.453c0 1.7 0.6 3.2 1.9 4.472c1.236 1.2 2.7 1.9 4.5 1.9 s3.234-0.618 4.472-1.855C375.577 376.3 376.2 374.8 376.2 373.062z"/>
		<path fill="#FFFFFF" d="M400.654 381.857c-1.534 0.865-3.186 1.299-4.954 1.299c-2.796 0-5.183-0.983-7.162-2.95 c-1.979-1.979-2.969-4.36-2.969-7.144s0.989-5.164 2.969-7.144c1.991-1.991 4.379-2.987 7.162-2.987 c1.757 0 3.4 0.4 5 1.336c1.484 0.8 2.7 2 3.7 3.507l-3.191 2.097c-1.386-2.09-3.204-3.136-5.455-3.136 c-1.731 0-3.223 0.625-4.472 1.874c-1.237 1.237-1.855 2.722-1.855 4.453c0 1.7 0.6 3.2 1.9 4.5 c1.236 1.2 2.7 1.9 4.5 1.855c2.251 0 4.069-1.045 5.455-3.136l3.191 2.1 C403.369 379.8 402.1 381 400.7 381.857z"/>
		<path fill="#FFFFFF" d="M430.079 373.062c0 2.771-0.996 5.152-2.987 7.144c-1.992 1.967-4.379 2.95-7.162 3 c-2.796 0-5.184-0.983-7.162-2.95c-1.979-1.979-2.969-4.36-2.969-7.144s0.989-5.164 2.969-7.144 c1.991-1.991 4.379-2.987 7.162-2.987s5.17 1 7.2 2.987C429.083 367.9 430.1 370.3 430.1 373.062z M426.275 373.1 c0-1.719-0.625-3.203-1.874-4.453c-1.25-1.249-2.74-1.874-4.472-1.874c-1.732 0-3.223 0.625-4.472 1.9 c-1.237 1.237-1.855 2.722-1.855 4.453c0 1.7 0.6 3.2 1.9 4.472c1.236 1.2 2.7 1.9 4.5 1.9 s3.234-0.618 4.472-1.855C425.65 376.3 426.3 374.8 426.3 373.062z"/>
		<path fill="#FFFFFF" d="M452.119 382.841v-2.338c-1.881 1.77-4.101 2.653-6.661 2.653c-2.722 0-5.041-0.995-6.958-2.987 c-1.905-1.979-2.857-4.348-2.857-7.106c0-2.758 0.952-5.133 2.857-7.125c1.904-2.004 4.224-3.006 6.958-3.006 c2.572 0 4.8 0.9 6.7 2.69v-2.375h3.804v19.594H452.119z M452.119 373.062c0-1.719-0.625-3.203-1.874-4.453 c-1.25-1.249-2.74-1.874-4.472-1.874c-1.732 0-3.223 0.625-4.472 1.874c-1.237 1.237-1.855 2.722-1.855 4.5 c0 1.7 0.6 3.2 1.9 4.472c1.236 1.2 2.7 1.9 4.5 1.855s3.234-0.618 4.472-1.855 C451.494 376.3 452.1 374.8 452.1 373.062z"/>
	</g>
</g>
<text transform="matrix(1 0 0 1 -557.5815 484.4336)" fill="#FFFFFF" font-family="'SFOldRepublic-Bold'" font-size="38" letter-spacing="3">ColdFusionCocoa</text>
</svg>
